<svg height="512" viewBox="0 0 192 192" width="512" xmlns="http://www.w3.org/2000/svg" xmlns:xlink="http://www.w3.org/1999/xlink"><linearGradient id="New_Gradient_Swatch_1" gradientUnits="userSpaceOnUse" x1="72.277" x2="119.723" y1="107.855" y2="60.409"><stop offset="0" stop-color="#34cdfa"/><stop offset="1" stop-color="#e8d9f1"/></linearGradient><path d="m96 0a80 80 0 0 0 -80 80c0 39.371 63.523 97.508 77.36 109.705a3.988 3.988 0 0 0 5.28 0c13.837-12.197 77.36-70.334 77.36-109.705a80 80 0 0 0 -80-80z" fill="#67d9fb"/><path d="m40 80a80.017 80.017 0 0 1 68-79.1 80.044 80.044 0 0 0 -92 79.1c0 39.371 63.523 97.508 77.36 109.705a3.988 3.988 0 0 0 5.28 0c2.1-1.854 5.359-4.774 9.36-8.523-22.324-20.918-68-67.795-68-101.182z" fill="#34cdfa"/><circle cx="96" cy="80" fill="#e6f9fe" r="56"/><path d="m112 128a55.991 55.991 0 0 1 -32.65-101.483 56 56 0 1 0 49.3 98.966 55.973 55.973 0 0 1 -16.65 2.517z" fill="#ccf2fe"/><path d="m133.029 87.428 5.942-6.856-34.971-13.988v-18.584a8 8 0 0 0 -8-8 8 8 0 0 0 -8 8v18.584l-34.971 13.988 5.942 6.856 29.029-3.612v19.24l-11.578 8.789 7.156 7.31 12.422-6.211 12.422 6.211 7.156-7.31-11.578-8.789v-19.24z" fill="url(#New_Gradient_Swatch_1)"/></svg>